# xmcd
#
# Track frame offsets:
#	150
#	21992
#	42967
#	64280
#	82635
#	104652
#	125235
#	145827
#	164550
#	182855
#	203392
#	224337
#
# Disc length: 3247 seconds
#
# Revision: 1
# Processed by: cddbd v1.5.1PL0 Copyright (c) Steve Scherf et al.
# Submitted via: CDex 1.50Beta5
#
DISCID=b00cad0c
DTITLE=オルゴール - EN1/fL'AIR 01
DYEAR=1900
DGENRE=
TTITLE0=東京
TTITLE1=白い恋人たち
TTITLE2=TSUNAMI
TTITLE3=independent
TTITLE4=Free&Easy
TTITLE5=ワダツミの木
TTITLE6=眠れぬ夜は君のせい
TTITLE7=亜麻色の髪の乙女
TTITLE8=大きな古時計
TTITLE9=Way of Difference
TTITLE10=逢いたい気持ち
TTITLE11=熱き鼓動の果て
EXTD=
EXTT0=
EXTT1=
EXTT2=
EXTT3=
EXTT4=
EXTT5=
EXTT6=
EXTT7=
EXTT8=
EXTT9=
EXTT10=
EXTT11=
PLAYORDER=
